<svg xmlns="http://www.w3.org/2000/svg" width="33" height="29" viewBox="2 1.998 32 28.001"><path paint-order="stroke fill markers" fill-rule="evenodd" fill='white' d="M33.924 18.454L29.922 3.449A2.005 2.005 0 0 0 28 1.999H18 8c-.89 0-1.68.597-1.922 1.45L2.076 18.454c-.05.183-.076.367-.076.545v7a4 4 0 0 0 4 4h24a4 4 0 0 0 4-4v-7c0-.178-.025-.362-.076-.545zM32 25.999c0 1.102-.898 2-2 2H6c-1.103 0-2-.898-2-2v-7L8 3.997H28L32 19v7zm-6.258-20H10.258a1 1 0 0 0-.967.744L5.846 18.742c-.08.3-.016.62.173.867.19.245.483.389.793.389h4.569l1.447 2.896a1.999 1.999 0 0 0 1.79 1.104h6.765c.758 0 1.45-.426 1.789-1.104l1.447-2.896h4.568a1.002 1.002 0 0 0 .967-1.256L26.71 6.743A1 1 0 0 0 25.742 6zm.54 12h-1.663a1.99 1.99 0 0 0-1.789 1.105l-1.447 2.895h-6.766l-1.447-2.895a1.99 1.99 0 0 0-1.79-1.105H9.72 7.334l2.924-11h15.484l2.924 11h-2.385z"/></svg>